<?xml version="1.0" encoding="UTF-8" standalone="no"?>
<!-- Created with Inkscape (http://www.inkscape.org/) -->

<svg
   xmlns:osb="http://www.openswatchbook.org/uri/2009/osb"
   xmlns:dc="http://purl.org/dc/elements/1.1/"
   xmlns:cc="http://creativecommons.org/ns#"
   xmlns:rdf="http://www.w3.org/1999/02/22-rdf-syntax-ns#"
   xmlns:svg="http://www.w3.org/2000/svg"
   xmlns="http://www.w3.org/2000/svg"
   xmlns:sodipodi="http://sodipodi.sourceforge.net/DTD/sodipodi-0.dtd"
   xmlns:inkscape="http://www.inkscape.org/namespaces/inkscape"
   width="16"
   height="16"
   viewBox="0 0 4.2333332 4.2333335"
   version="1.1"
   id="svg3719"
   inkscape:version="0.92.4 (5da689c313, 2019-01-14)"
   sodipodi:docname="boom.svg">
  <defs
     id="defs3713">
    <linearGradient
       id="linearGradient2401"
       osb:paint="solid">
      <stop
         style="stop-color:#000000;stop-opacity:1;"
         offset="0"
         id="stop2399" />
    </linearGradient>
    <linearGradient
       id="linearGradient2393"
       osb:paint="solid">
      <stop
         style="stop-color:#000000;stop-opacity:1;"
         offset="0"
         id="stop2391" />
    </linearGradient>
    <linearGradient
       id="linearGradient2305"
       osb:paint="solid">
      <stop
         style="stop-color:#7e0024;stop-opacity:1;"
         offset="0"
         id="stop2303" />
    </linearGradient>
    <linearGradient
       id="linearGradient841"
       osb:paint="solid">
      <stop
         style="stop-color:#7e0024;stop-opacity:1;"
         offset="0"
         id="stop839" />
    </linearGradient>
  </defs>
  <sodipodi:namedview
     id="base"
     pagecolor="#ffffff"
     bordercolor="#666666"
     borderopacity="1.0"
     inkscape:pageopacity="0.0"
     inkscape:pageshadow="2"
     inkscape:zoom="31.678384"
     inkscape:cx="2.5712694"
     inkscape:cy="10.489054"
     inkscape:document-units="mm"
     inkscape:current-layer="layer1"
     showgrid="false"
     units="px"
     inkscape:pagecheckerboard="true"
     inkscape:snap-to-guides="false"
     inkscape:snap-grids="false"
     inkscape:snap-nodes="false"
     inkscape:snap-global="false"
     inkscape:window-width="1235"
     inkscape:window-height="1008"
     inkscape:window-x="103"
     inkscape:window-y="0"
     inkscape:window-maximized="0" />
  <metadata
     id="metadata3716">
    <rdf:RDF>
      <cc:Work
         rdf:about="">
        <dc:format>image/svg+xml</dc:format>
        <dc:type
           rdf:resource="http://purl.org/dc/dcmitype/StillImage" />
        <dc:title />
      </cc:Work>
    </rdf:RDF>
  </metadata>
  <g
     inkscape:label="Layer 1"
     inkscape:groupmode="layer"
     id="layer1"
     transform="translate(0,-292.76665)">
    <path
       id="path3721"
       style="display:inline;fill:none;fill-opacity:1;stroke:#ffffff;stroke-width:0.1952119;stroke-linecap:butt;stroke-linejoin:miter;stroke-miterlimit:4;stroke-dasharray:none;stroke-opacity:1"
       d="m 0.97467249,294.01833 0.56045611,1.94171 -0.71316608,-0.65482 0.39060518,0.71241 -1.00508113,-0.37469 v 0.0135 0.10451 0.0511 l 0.97962943,0.99823 2.7851394,-0.0689 0.059214,-1.71206 -0.5604561,0.59794 -0.1018068,-0.64415 -0.076355,-0.82688 -0.322561,0.48276 -0.5095526,0.58586 -0.3906052,-0.79275 -0.1953026,1.42482 z"
       inkscape:connector-curvature="0" />
    <path
       style="fill:none;fill-opacity:1;stroke:#ffffff;stroke-width:0.248;stroke-linecap:butt;stroke-linejoin:miter;stroke-miterlimit:4;stroke-dasharray:none;stroke-opacity:1"
       d="m 3.7043993,296.46618 -2.2505406,0.1339 -0.4098924,-0.30962 0.4330938,0.17572 0.1546763,-0.0335 -0.00773,-0.0753 0.3093527,0.0669 v -0.10041 l 0.1856116,0.0669 0.1005396,-0.36819 0.1778778,0.25104 0.5181657,-0.70292 0.2629498,0.52719 0.2320145,0.0419 0.4021585,-0.35146 0.038669,-0.008 -0.038669,0.67781 z"
       id="path4668"
       inkscape:connector-curvature="0" />
    <path
       style="fill:none;stroke:#000000;stroke-width:0;stroke-linecap:butt;stroke-linejoin:miter;stroke-opacity:1;stroke-miterlimit:4;stroke-dasharray:none"
       d="m 1.7957171,294.33564 c 0.00835,-0.0111 0.016704,-0.0223 0.025057,-0.0334 0.00278,0 0.00638,0.002 0.00835,0 0.00197,-0.002 0,-0.006 0,-0.008 0,-0.003 0,-0.006 0,-0.008 0,-0.003 -0.00125,-0.006 0,-0.008 0.00176,-0.004 0.00711,-0.005 0.00835,-0.008 1.26e-5,-3e-5 -8e-6,-0.0251 0,-0.0251 0.00197,-0.002 0.00571,8.8e-4 0.00835,0 0.00591,-0.002 0.012302,-0.004 0.016704,-0.008 0.00197,-0.002 -0.00125,-0.006 0,-0.008 0.00176,-0.004 0.00659,-0.005 0.00835,-0.008 0.00264,-0.005 -0.00264,-0.0365 0,-0.0418 0.00176,-0.004 0.00557,-0.006 0.00835,-0.008 0.00278,-0.003 0.00483,-0.007 0.00835,-0.008 0.00249,-0.001 0.00711,0.002 0.00835,0 0.00249,-0.005 -0.00176,-0.0114 0,-0.0167 0.00125,-0.004 0.00659,-0.005 0.00835,-0.008 0.00125,-0.002 -0.00125,-0.006 0,-0.008 0.00176,-0.004 0.00557,-0.006 0.00835,-0.008 0.00956,-0.01 0.011648,-0.01 0.016704,-0.025 0.00176,-0.005 -0.00249,-0.0117 0,-0.0167 0.01738,-0.0348 -5.768e-4,0.009 0.016704,-0.008 0.00394,-0.004 -0.00249,-0.0117 0,-0.0167 0.00176,-0.004 0.00557,-0.006 0.00835,-0.008 0.00163,-0.002 0.01056,-0.0145 0.016704,-0.008 3.784e-4,3.8e-4 0,0.0378 0,0.0418 0,0.0167 0,0.0334 0,0.0501 0,0.005 -0.00157,0.0203 0,0.025 0.00197,0.006 0.00684,0.0107 0.00835,0.0167 0.00135,0.005 0,0.0111 0,0.0167 0,0.0139 0,0.0278 0,0.0418 0,0.006 -0.00176,0.0114 0,0.0167 0.00197,0.006 0.00638,0.0108 0.00835,0.0167 0.00192,0.006 -0.00246,0.0201 0,0.0251 0.00176,0.004 0.00711,0.005 0.00835,0.008 0.00158,0.005 0,0.0339 0,0.0418 0,0.003 -8.81e-4,0.006 0,0.008 0.017281,0.0519 -6.747e-4,-0.0278 0.016705,0.0418 8.572e-4,0.003 -0.00101,0.0157 0,0.0167 0.00197,0.002 0.00638,-0.002 0.00835,0 0.00197,0.002 -0.00125,0.006 0,0.008 0.00176,0.004 0.00659,0.005 0.00835,0.008 0.00125,0.002 -0.00197,0.006 0,0.008 0.00197,0.002 0.00638,-0.002 0.00835,0 0.00197,0.002 -0.00197,0.006 0,0.008 0.00197,0.002 0.00711,-0.002 0.00835,0 0.00249,0.005 -0.00249,0.0117 0,0.0167 0.00249,0.005 0.012767,-0.004 0.016704,0 0.00197,0.002 -0.00197,0.006 0,0.008 0.00197,0.002 0.00586,-10e-4 0.00835,0 0.00352,0.002 0.00483,0.007 0.00835,0.008 0.00249,0.001 0.00557,0 0.00835,0 0.00278,0 0.00557,0 0.00835,0 0.01392,0 0.027841,0 0.041761,0 0.00581,0 0.03874,0.002 0.041761,0 0.00352,-0.002 0.00483,-0.007 0.00835,-0.008 0.00498,-0.002 0.012767,0.004 0.016704,0 0.00197,-0.002 -0.00197,-0.006 0,-0.008 0.0044,-0.004 0.010798,-0.006 0.016704,-0.008 0.00264,-8.8e-4 0.00638,0.002 0.00835,0 0.00197,-0.002 -0.00249,-0.007 0,-0.008 0.00668,-0.003 0.018375,0.003 0.025057,0 0.00352,-0.002 0.00483,-0.007 0.00835,-0.008 0.00249,-0.001 0.00571,8.9e-4 0.00835,0 0.00591,-0.002 0.010798,-0.006 0.016704,-0.008 0.00264,-8.8e-4 0.00586,0.001 0.00835,0 0.00352,-0.002 0.00483,-0.007 0.00835,-0.008 0.00498,-0.002 0.011724,0.002 0.016704,0 0.00352,-0.002 0.00462,-0.007 0.00835,-0.008 0.00528,-0.002 0.011136,0 0.016704,0 0.00278,0 0.00586,10e-4 0.00835,0 0.00352,-0.002 0.00483,-0.007 0.00835,-0.008 0.00249,-10e-4 0.00557,0 0.00835,0 0.00557,-0.003 0.011525,-0.005 0.016704,-0.008 0.00328,-0.002 0.00483,-0.007 0.00835,-0.008 0.00498,-0.002 0.011422,0.002 0.016704,0 0.00591,-0.002 0.010798,-0.006 0.016704,-0.008 0.00264,-8.8e-4 0.00638,0.002 0.00835,0 0.00197,-0.002 -0.00197,-0.006 0,-0.008 0.00247,-0.002 0.028235,0.003 0.033409,0 0.038225,-0.0191 -0.035442,0.003 0.025057,-0.0167 0.00574,-0.002 0.020128,0.002 0.025056,0 0.00704,-0.004 0.00966,-0.0132 0.016705,-0.0167 0.00543,-0.003 0.036463,0.003 0.041761,0 0.00352,-0.002 0.00483,-0.007 0.00835,-0.008 0.00498,-0.002 0.011724,0.002 0.016704,0 0.00352,-0.002 0.00483,-0.007 0.00835,-0.008 0.00249,-0.001 0.00586,10e-4 0.00835,0 0.00352,-0.002 0.00483,-0.007 0.00835,-0.008 0.00498,-0.002 0.012767,0.004 0.016704,0 0.00196,-0.002 -0.00278,-0.008 0,-0.008 0.00278,0 0,0.006 0,0.008 0,0.003 0,0.006 0,0.008 0,0.0223 0.00278,-0.003 -0.00835,0.008 -0.00394,0.004 0.00249,0.0117 0,0.0167 -0.00449,0.009 -0.01154,0.0164 -0.016704,0.0251 -0.0032,0.005 -0.00557,0.0111 -0.00835,0.0167 -0.00278,0.006 -0.00638,0.0108 -0.00835,0.0167 -8.811e-4,0.003 0.00197,0.006 0,0.008 -0.0044,0.004 -0.012302,0.004 -0.016704,0.008 -0.00394,0.004 0.00394,0.0128 0,0.0167 -0.0044,0.004 -0.012302,0.004 -0.016704,0.008 -0.00197,0.002 8.81e-4,0.006 0,0.008 -0.00203,0.006 -0.00906,0.0212 -0.016704,0.0251 -0.00249,0.001 -0.00638,-0.002 -0.00835,0 -0.00197,0.002 6.747e-4,0.006 0,0.008 -0.00214,0.009 -0.00441,0.0172 -0.00835,0.0251 -0.00176,0.004 -0.00557,0.006 -0.00835,0.008 -0.00557,0.006 -0.011979,0.0104 -0.016704,0.0167 -0.00374,0.005 -0.00557,0.0111 -0.00835,0.0167 -0.00557,0.0111 -0.011136,0.0223 -0.016704,0.0334 -0.00278,0.006 -0.0049,0.0115 -0.00835,0.0167 -0.00218,0.003 -0.00659,0.005 -0.00835,0.008 -0.00249,0.005 0.00394,0.0128 0,0.0167 -0.017281,0.0173 6.746e-4,-0.0264 -0.016705,0.008 -0.00125,0.002 0.00125,0.006 0,0.008 -0.00176,0.004 -0.00659,0.005 -0.00835,0.008 -0.00125,0.002 0.00125,0.006 0,0.008 -0.012735,0.0255 -0.00662,-0.0153 -0.016704,0.0251 -0.00135,0.005 0.00176,0.0114 0,0.0167 -0.00249,0.007 -0.013183,0.01 -0.016704,0.0167 -0.00125,0.002 0.00125,0.006 0,0.008 -0.00176,0.004 -0.00659,0.005 -0.00835,0.008 -0.00249,0.005 0.00249,0.0117 0,0.0167 -0.00176,0.004 -0.00659,0.005 -0.00835,0.008 -0.0011,0.002 0,0.029 0,0.0334 0,0.0278 0,0.0557 0,0.0835 0,0.003 0,0.006 0,0.008 0,0.003 -0.00197,0.006 0,0.008 0.00197,0.002 0.00711,-0.002 0.00835,0 0.00249,0.005 0,0.0111 0,0.0167 0,0.003 -0.00197,0.006 0,0.008 0.00197,0.002 0.00638,-0.002 0.00835,0 0.00394,0.004 -0.00394,0.0128 0,0.0167 0.00197,0.002 0.00638,-0.002 0.00835,0 0.00197,0.002 -0.00197,0.006 0,0.008 0.00197,0.002 0.00638,-0.002 0.00835,0 0.00197,0.002 -0.00197,0.006 0,0.008 0.00197,0.002 0.00638,-0.002 0.00835,0 0.00394,0.004 -0.00249,0.0117 0,0.0167 0.00923,0.0185 0.00518,0.003 0.016704,0.008 0.03476,0.0174 -0.00893,-5.8e-4 0.00835,0.0167 0.00197,0.002 0.00638,-0.002 0.00835,0 0.00197,0.002 -0.00197,0.006 0,0.008 0.00197,0.002 0.00638,-0.002 0.00835,0 0.00197,0.002 -0.00197,0.006 0,0.008 7.488e-4,7.4e-4 0.024842,4.2e-4 0.025057,0 0.00951,-0.019 -0.00278,-0.0139 -0.00835,-0.0251 -0.00249,-0.005 0.00394,-0.0128 0,-0.0167 -0.00197,-0.002 -0.00638,0.002 -0.00835,0 -0.00197,-0.002 0.00125,-0.006 0,-0.008 -0.00176,-0.004 -0.00557,-0.006 -0.00835,-0.008 -0.00491,-0.005 -0.031475,-0.0295 -0.033409,-0.0334 -0.00125,-0.002 0.00197,-0.006 0,-0.008 -0.00197,-0.002 -0.00638,0.002 -0.00835,0 -0.00278,-0.006 -0.00557,-0.0111 -0.00835,-0.0167 -0.00278,0 -0.00638,0.002 -0.00835,0 -0.00197,-0.002 8.811e-4,-0.006 0,-0.008 -0.00197,-0.006 -0.00638,-0.0108 -0.00835,-0.0167 -8.81e-4,-0.003 0.00197,-0.006 0,-0.008 -0.00197,-0.002 -0.00586,0.001 -0.00835,0 -0.00352,-0.002 -0.00557,-0.006 -0.00835,-0.008 -0.00278,-0.003 -0.00659,-0.005 -0.00835,-0.008 -0.00125,-0.002 0.00197,-0.006 0,-0.008 -0.00197,-0.002 -0.00557,0 -0.00835,0 -0.00278,-0.003 -0.00617,-0.005 -0.00835,-0.008 -0.00345,-0.005 -0.00638,-0.0108 -0.00835,-0.0167 -8.811e-4,-0.003 0.00197,-0.006 0,-0.008 -0.00197,-0.002 -0.00586,10e-4 -0.00835,0 -0.00222,-10e-4 -0.023948,-0.0228 -0.025057,-0.0251 -0.00125,-0.002 0.00197,-0.006 0,-0.008 -0.00197,-0.002 -0.00586,10e-4 -0.00835,0 -0.00352,-0.002 -0.00483,-0.007 -0.00835,-0.008 -0.00249,-0.001 -0.00638,0.002 -0.00835,0 -0.00197,-0.002 0.00197,-0.006 0,-0.008 -0.00197,-0.002 -0.00586,0.001 -0.00835,0 -0.00352,-0.002 -0.00483,-0.007 -0.00835,-0.008 -0.00249,-0.001 -0.00638,0.002 -0.00835,0 -0.00197,-0.002 0.00197,-0.006 0,-0.008 -0.017281,-0.0173 6.747e-4,0.0264 -0.016704,-0.008 -0.00125,-0.002 0.00249,-0.007 0,-0.008 -0.026464,-0.0132 -0.00777,0.0173 -0.033409,-0.008 -0.00197,-0.002 0.00197,-0.006 0,-0.008 -0.00197,-0.002 -0.00586,0.001 -0.00835,0 -0.020641,-0.0103 0.00288,-0.008 -0.016705,-0.008 -0.00278,0 -0.00711,0.002 -0.00835,0 -0.00249,-0.005 0.00249,-0.0117 0,-0.0167 -0.00125,-0.002 -0.00557,0 -0.00835,0 -0.022272,0 0.00278,0.003 -0.00835,-0.008 -0.00394,-0.004 -0.012767,0.004 -0.016704,0 -0.00197,-0.002 0.00197,-0.006 0,-0.008 -0.00197,-0.002 -0.00638,0.002 -0.00835,0 -0.0044,-0.004 -0.00395,-0.0123 -0.00835,-0.0167 -0.00394,-0.004 -0.011724,0.002 -0.016704,0 -0.00687,-0.003 -0.027231,-0.0293 -0.033408,-0.0334 -0.00463,-0.003 -0.012767,0.004 -0.016704,0 -0.00197,-0.002 0.00197,-0.006 0,-0.008 -0.00197,-0.002 -0.00557,0 -0.00835,0 -0.00376,0 -0.022515,-10e-4 -0.025057,0 -0.00352,0.002 -0.00483,0.007 -0.00835,0.008 -0.00249,0.001 -0.00638,-0.002 -0.00835,0 -0.00197,0.002 0.00197,0.006 0,0.008 -0.00394,0.004 -0.012767,-0.004 -0.016704,0 -0.00197,0.002 0,0.006 0,0.008 -0.00557,0 -0.011422,-0.002 -0.016704,0 -0.00747,0.002 -0.00966,0.0132 -0.016704,0.0167 -0.00249,10e-4 -0.00557,0 -0.00835,0 -0.00278,0.003 -0.00483,0.007 -0.00835,0.008 -0.00249,10e-4 -0.00638,-0.002 -0.00835,0 -0.00197,0.002 0.00197,0.006 0,0.008 -0.00394,0.004 -0.011724,-0.002 -0.016704,0 -0.03476,0.0174 0.00893,-5.7e-4 -0.00835,0.0167 -0.00197,0.002 -0.00586,-10e-4 -0.00835,0 -0.020641,0.0103 0.00288,0.008 -0.016704,0.008 -0.00278,0 -0.00711,-0.002 -0.00835,0 -0.00249,0.005 0.00249,0.0117 0,0.0167 -0.00125,0.002 -0.00638,-0.002 -0.00835,0 -0.00394,0.004 0.00394,0.0128 0,0.0167 -0.011136,0.0111 -0.00835,-0.0139 -0.00835,0.008 0,0.006 0,0.0111 0,0.0167 0,0.003 0.00125,0.0109 0,0.008 -0.00326,-0.007 -0.00941,-0.0345 -0.016704,-0.0418 -0.00197,-0.002 -0.00586,10e-4 -0.00835,0 -0.018467,-0.009 -0.00259,-0.005 -0.00835,-0.0167 -0.00176,-0.004 -0.00711,-0.005 -0.00835,-0.008 -0.00176,-0.005 0.00249,-0.0117 0,-0.0167 -0.00125,-0.002 -0.00586,10e-4 -0.00835,0 -0.00352,-0.002 -0.00483,-0.007 -0.00835,-0.008 -0.00249,-0.001 -0.00638,0.002 -0.00835,0 -0.0044,-0.004 -0.0049,-0.0115 -0.00835,-0.0167 -0.00437,-0.007 -0.013183,-0.01 -0.016704,-0.0167 -0.00125,-0.002 0.00197,-0.006 0,-0.008 -0.0044,-0.004 -0.012302,-0.004 -0.016704,-0.008 -0.0044,-0.004 -0.00395,-0.0123 -0.00835,-0.0167 -0.00197,-0.002 -0.00638,0.002 -0.00835,0 -0.0044,-0.004 -0.00395,-0.0123 -0.00835,-0.0167 -0.017281,-0.0173 6.747e-4,0.0264 -0.016704,-0.008 -0.00125,-0.002 0.00197,-0.006 0,-0.008 -0.00394,-0.004 -0.012767,0.004 -0.016705,0 -0.00197,-0.002 0.00125,-0.006 0,-0.008 -0.00923,-0.0185 -0.00518,-0.003 -0.016704,-0.008 -0.00352,-0.002 -0.00483,-0.007 -0.00835,-0.008 -0.00498,-0.002 -0.012767,0.004 -0.016704,0 -0.00197,-0.002 0.00197,-0.006 0,-0.008 -0.00197,-0.002 -0.00638,0.002 -0.00835,0 -0.00197,-0.002 0.00197,-0.006 0,-0.008 -0.00197,-0.002 -0.00638,0.002 -0.00835,0 -0.00197,-0.002 0.00197,-0.006 0,-0.008 -0.00394,-0.004 -0.011724,0.002 -0.016705,0 -0.00352,-0.002 -0.00483,-0.007 -0.00835,-0.008 -0.00668,-0.003 -0.018375,0.003 -0.025057,0 -0.00352,-0.002 -0.00483,-0.007 -0.00835,-0.008 -0.00331,-0.002 -0.023349,0.002 -0.025057,0 -0.017281,-0.0173 0.026407,6.7e-4 -0.00835,-0.0167 -0.00498,-0.002 -0.012767,0.004 -0.016705,0 -0.00197,-0.002 0.00197,-0.006 0,-0.008 -0.00394,-0.004 -0.011724,0.002 -0.016704,0 -0.00352,-0.002 -0.00483,-0.007 -0.00835,-0.008 -0.00249,-10e-4 -0.00557,0 -0.00835,0 -0.00278,0 -0.00557,0 -0.00835,0 -0.00557,0 -0.011136,0 -0.016704,0 -0.00278,0 -0.00835,0.003 -0.00835,0 0,-0.006 0.012767,0.004 0.016704,0 0.00197,-0.002 -0.00197,-0.006 0,-0.008 0.00197,-0.002 0.00638,0.002 0.00835,0 0.00197,-0.002 -0.00197,-0.006 0,-0.008 0.00197,-0.002 0.00557,0 0.00835,0 0.00278,0 0.00557,0 0.00835,0 0.030625,0 0.061249,0 0.091874,0 0.033409,0 0.066817,0 0.1002261,0 0.00581,0 0.03874,0.002 0.041761,0 0.00352,-0.002 0.00483,-0.007 0.00835,-0.008 0.00498,-0.002 0.011724,0.002 0.016704,0 0.00352,-0.002 0.00557,-0.006 0.00835,-0.008 0.00278,-0.003 0.00659,-0.005 0.00835,-0.008 0.00125,-0.002 -0.00197,-0.006 0,-0.008 0.00394,-0.004 0.011724,0.002 0.016704,0 0.010023,-0.005 0.015034,-0.0201 0.025057,-0.0251 0.00249,-10e-4 0.00638,0.002 0.00835,0 0.00197,-0.002 -0.00125,-0.006 0,-0.008 0.00176,-0.004 0.00711,-0.005 0.00835,-0.008 1.26e-5,-4e-5 -8e-6,-0.0251 0,-0.0251 0.00197,-0.002 0.00638,0.002 0.00835,0 0.00394,-0.004 -0.00249,-0.0117 0,-0.0167 0.00176,-0.004 0.00835,-0.004 0.00835,-0.008 0,-0.003 -0.00638,0.002 -0.00835,0 -0.00394,-0.004 0.00394,-0.0128 0,-0.0167 -0.00197,-0.002 -0.00638,0.002 -0.00835,0 -0.00394,-0.004 0.00394,-0.0128 0,-0.0167 -0.00197,-0.002 -0.00638,0.002 -0.00835,0 -3.36e-4,-3.4e-4 0,-0.0303 0,-0.0334"
       id="path4715"
       inkscape:connector-curvature="0" />
    <path
       style="fill:#fffffe;fill-opacity:1;stroke:#000000;stroke-width:0.01946266;stroke-linecap:butt;stroke-linejoin:miter;stroke-miterlimit:4;stroke-dasharray:none;stroke-opacity:0.57286431"
       d="m 0.72839382,294.08858 c 0.14960067,-0.39179 0.44149778,-0.8741 -0.45579737,-0.59881 0.46183053,-0.0705 0.98589035,-0.5163 1.02011605,-0.49462 -0.5397618,0.15933 -0.094469,0.73781 0.3342368,1.30928 l -0.64227094,-0.65481 z"
       id="path4719"
       inkscape:connector-curvature="0"
       sodipodi:nodetypes="cccccc" />
    <path
       style="fill:#ffffff;fill-opacity:1;stroke:#000000;stroke-width:0.01662537;stroke-linecap:butt;stroke-linejoin:miter;stroke-miterlimit:4;stroke-dasharray:none;stroke-opacity:0.62311557"
       d="m 2.4803244,293.15557 c 0.5374938,0.56341 0.516958,-0.46767 0.7602109,-0.74499 -0.067561,0.56753 -0.3791119,1.50268 0.5593485,0.5544 -0.4661557,0.41502 -0.3579366,0.76247 -0.1803797,1.10175 -0.2513182,-0.67995 -0.8096703,0.0559 -1.2600095,0.29384 1.0262011,-0.79885 -0.3507087,-0.50539 -0.7478183,-0.65733 0.8010773,0.0489 1.1989727,-0.0845 0.8686481,-0.54767 z"
       id="path4723"
       inkscape:connector-curvature="0"
       sodipodi:nodetypes="ccccccc" />
  </g>
</svg>
